# xmcd
#
# Track frame offsets:
#	150
#	11632
#	21292
#	29608
#	42330
#	54773
#	74577
#	86360
#	98219
#	108140
#	121360
#	134938
#	145858
#	157147
#	169322
#	180252
#	189672
#	200667
#	211144
#	221977
#
# Disc length: 3103 seconds
#
# Revision: 0
# Processed by: cddbd v1.5.2PL0 Copyright (c) Steve Scherf et al.
# Submitted via: EZCDAudioConverter 1.3.1.1
#
DISCID=2c0c1d14
DTITLE=Various Artist - The Greatest Hits Of The 50's [CD3 - The Classic S
DTITLE=tars Of 50's Country and Western)
DYEAR=1900
DGENRE=
TTITLE0=Johnny Horton - The Battle Of New Orleans
TTITLE1=Boots Randolph - Percolator
TTITLE2=Don Gibson - Sweet Sweet Girl
TTITLE3=Bobby Helms - Fraulein
TTITLE4=George Jones - White Lightnin'
TTITLE5=Marty Robbins - El Paso
TTITLE6=Tennesesee Ernie Ford - Sixteen Tons
TTITLE7=Jim Reeves - Mexican Joe
TTITLE8=Johnny Cash - Ballad Of A Teenage Queen
TTITLE9=Kitty Wells and Red Foley - One By One
TTITLE10=Ray Price - Heartaches By The Number
TTITLE11=Bobby Bare - That's Where I Want To Be
TTITLE12=Webb Pierce - No Love Have I
TTITLE13=Roy Drusky - Anymore
TTITLE14=Buck Owens - Above And Beyond
TTITLE15=Skeeter Davis - I Am That Easy To Forget
TTITLE16=Bob Luman - You Got Everything
TTITLE17=Faron Young - Face To The Wall
TTITLE18=Marvin Rainwater - Nothin' Needs Nothin'
TTITLE19=Hank Locklin - Please Help Me I'm Falling
EXTD=
EXTT0=
EXTT1=
EXTT2=
EXTT3=
EXTT4=
EXTT5=
EXTT6=
EXTT7=
EXTT8=
EXTT9=
EXTT10=
EXTT11=
EXTT12=
EXTT13=
EXTT14=
EXTT15=
EXTT16=
EXTT17=
EXTT18=
EXTT19=
PLAYORDER=
